<svg width="410" height="315" viewBox="0 0 410 315" fill="none" xmlns="http://www.w3.org/2000/svg">
<g clip-path="url(#clip0_16253_801)">
<path d="M29.2111 290.191C37.9311 306.42 56.4381 313.387 56.4381 313.387C56.4381 313.387 60.8071 294.041 52.0871 277.811C43.3671 261.581 24.8602 254.614 24.8602 254.614C24.8602 254.614 20.4911 273.961 29.2111 290.191Z" fill="#FFA542"/>
<path d="M35.2047 284.851C50.9479 294.357 57.0111 313.238 57.0111 313.238C57.0111 313.238 37.5496 316.707 21.8064 307.201C6.0632 297.695 0 278.814 0 278.814C0 278.814 19.4616 275.345 35.2047 284.851Z" fill="#FFCE7F"/>
<path d="M390.976 13.5813H292.749V14.9896H390.976V13.5813Z" fill="#F2F2F2"/>
<path d="M320.813 0.906738H319.41V13.9334H320.813V0.906738Z" fill="#F2F2F2"/>
<path d="M363.612 0.906738H362.209V13.9334H363.612V0.906738Z" fill="#F2F2F2"/>
<path d="M421.847 183.28H323.62V184.689H421.847V183.28Z" fill="#F2F2F2"/>
<path d="M351.686 170.606H350.282V183.632H351.686V170.606Z" fill="#F2F2F2"/>
<path d="M394.483 170.606H393.08V183.632H394.483V170.606Z" fill="#F2F2F2"/>
<path d="M379.524 39.8585C383.814 39.8585 387.293 36.3678 387.293 32.0617C387.293 27.7557 383.814 24.2649 379.524 24.2649C375.233 24.2649 371.755 27.7557 371.755 32.0617C371.755 36.3678 375.233 39.8585 379.524 39.8585Z" fill="#FFA542"/>
<path d="M389.763 312.48H0V315H389.763V312.48Z" fill="#090909"/>
<path d="M140.498 36.8181H42.2715V38.2264H140.498V36.8181Z" fill="#F2F2F2"/>
<path d="M70.3359 24.1436H68.9326V37.1702H70.3359V24.1436Z" fill="#F2F2F2"/>
<path d="M113.135 24.1436H111.731V37.1702H113.135V24.1436Z" fill="#F2F2F2"/>
<path d="M296.816 69.6603L296.816 69.6602C269.196 41.5854 225.284 40.9314 196.905 67.2398C168.054 41.3219 124.24 42.7057 97.019 71.1523L97.0188 71.1525C69.7452 99.679 69.1241 144.978 94.9203 174.284L94.9295 174.295L94.9392 174.305L198.105 279.159L198.467 279.526L198.823 279.153L300.436 172.77L300.445 172.76L300.454 172.749C325.81 143.061 324.524 97.8504 296.816 69.6603ZM213.524 86.6696L213.524 86.6695C232.153 69.1774 261.072 69.7108 279.135 88.0633C297.106 106.335 298.225 135.655 281.955 155.196L198.206 242.879L113.155 156.445C96.6069 137.161 97.2882 107.79 114.96 89.315C132.795 70.6688 161.642 69.6917 180.592 86.9282L180.592 86.9283L196.836 101.695L197.178 102.006L197.514 101.69L213.524 86.6696Z" fill="#D6D6D6" stroke="black"/>
</g>
<defs>
<clipPath id="clip0_16253_801">
<rect width="409.879" height="315" fill="white"/>
</clipPath>
</defs>
</svg>
