<svg width="105" height="50" viewBox="0 0 105 50" fill="none" xmlns="http://www.w3.org/2000/svg">
<path d="M31 35.875C30.4333 36.575 29.7417 37.1083 28.925 37.475C28.125 37.8417 27.2417 38.025 26.275 38.025C24.975 38.025 23.8 37.7417 22.75 37.175C21.7 36.625 20.5 35.6417 19.15 34.225C17.5667 34.025 16.15 33.5167 14.9 32.7C13.6667 31.8833 12.7 30.8333 12 29.55C11.3167 28.25 10.975 26.8167 10.975 25.25C10.975 23.5333 11.3833 21.9917 12.2 20.625C13.0333 19.2417 14.175 18.1583 15.625 17.375C17.0917 16.5917 18.7333 16.2 20.55 16.2C22.3667 16.2 24 16.5917 25.45 17.375C26.9 18.1583 28.0417 19.2417 28.875 20.625C29.7083 21.9917 30.125 23.5333 30.125 25.25C30.125 27.2833 29.55 29.0667 28.4 30.6C27.2667 32.1333 25.7583 33.2 23.875 33.8C24.2917 34.2333 24.6917 34.5417 25.075 34.725C25.475 34.925 25.9 35.025 26.35 35.025C27.4333 35.025 28.3833 34.5917 29.2 33.725L31 35.875ZM15.075 25.25C15.075 26.3333 15.3083 27.3 15.775 28.15C16.2583 29 16.9167 29.6667 17.75 30.15C18.5833 30.6167 19.5167 30.85 20.55 30.85C21.5833 30.85 22.5167 30.6167 23.35 30.15C24.1833 29.6667 24.8333 29 25.3 28.15C25.7833 27.3 26.025 26.3333 26.025 25.25C26.025 24.1667 25.7833 23.2 25.3 22.35C24.8333 21.5 24.1833 20.8417 23.35 20.375C22.5167 19.8917 21.5833 19.65 20.55 19.65C19.5167 19.65 18.5833 19.8917 17.75 20.375C16.9167 20.8417 16.2583 21.5 15.775 22.35C15.3083 23.2 15.075 24.1667 15.075 25.25ZM40.7438 16.5C42.2938 16.5 43.6354 16.7583 44.7688 17.275C45.9188 17.7917 46.8021 18.525 47.4188 19.475C48.0354 20.425 48.3438 21.55 48.3438 22.85C48.3438 24.1333 48.0354 25.2583 47.4188 26.225C46.8021 27.175 45.9188 27.9083 44.7688 28.425C43.6354 28.925 42.2938 29.175 40.7438 29.175H37.2188V34H33.1688V16.5H40.7438ZM40.5188 25.875C41.7354 25.875 42.6604 25.6167 43.2938 25.1C43.9271 24.5667 44.2438 23.8167 44.2438 22.85C44.2438 21.8667 43.9271 21.1167 43.2938 20.6C42.6604 20.0667 41.7354 19.8 40.5188 19.8H37.2188V25.875H40.5188ZM51.2352 16.5H55.2852V34H51.2352V16.5ZM67.8133 34.3C66.0299 34.3 64.4133 33.9167 62.9633 33.15C61.5299 32.3667 60.3966 31.2917 59.5633 29.925C58.7466 28.5417 58.3383 26.9833 58.3383 25.25C58.3383 23.5167 58.7466 21.9667 59.5633 20.6C60.3966 19.2167 61.5299 18.1417 62.9633 17.375C64.4133 16.5917 66.0383 16.2 67.8383 16.2C69.3549 16.2 70.7216 16.4667 71.9383 17C73.1716 17.5333 74.2049 18.3 75.0383 19.3L72.4383 21.7C71.2549 20.3333 69.7883 19.65 68.0383 19.65C66.9549 19.65 65.9883 19.8917 65.1383 20.375C64.2883 20.8417 63.6216 21.5 63.1383 22.35C62.6716 23.2 62.4383 24.1667 62.4383 25.25C62.4383 26.3333 62.6716 27.3 63.1383 28.15C63.6216 29 64.2883 29.6667 65.1383 30.15C65.9883 30.6167 66.9549 30.85 68.0383 30.85C69.7883 30.85 71.2549 30.1583 72.4383 28.775L75.0383 31.175C74.2049 32.1917 73.1716 32.9667 71.9383 33.5C70.7049 34.0333 69.3299 34.3 67.8133 34.3ZM84.1482 27.125L81.7982 29.575V34H77.7732V16.5H81.7982V24.675L89.5482 16.5H94.0482L86.7982 24.3L94.4732 34H89.7482L84.1482 27.125Z" fill="#101010"/>
</svg>
